<svg xmlns="http://www.w3.org/2000/svg" width="512" height="512" viewBox="0 0 512 512" role="img" aria-label="Vibe Coding">
  <defs>
    <linearGradient id="bg" x1="64" y1="64" x2="448" y2="448" gradientUnits="userSpaceOnUse">
      <stop offset="0" stop-color="#7c3aed"/>
      <stop offset="1" stop-color="#d946ef"/>
    </linearGradient>
  </defs>
  <path d="M128 64h256c35.346 0 64 28.654 64 64v208c0 35.346-28.654 64-64 64H276.5L256 464l-20.5-64H128c-35.346 0-64-28.654-64-64V128c0-35.346 28.654-64 64-64z" fill="url(#bg)"/>
  <path d="M256 352c-12.15 0-22-9.85-22-22v-2.5c0-12.15 9.85-22 22-22s22 9.85 22 22v2.5c0 12.15-9.85 22-22 22z" fill="#000"/>
  <path d="M256 288c-12.15 0-22-9.85-22-22v-2.5c0-12.15 9.85-22 22-22s22 9.85 22 22v2.5c0 12.15-9.85 22-22 22z" fill="#000"/>
  <path d="M256 224c-12.15 0-22-9.85-22-22v-2.5c0-12.15 9.85-22 22-22s22 9.85 22 22v2.5c0 12.15-9.85 22-22 22z" fill="#000"/>
  <path d="M256 320c-45 0-86.5-10.5-110-27.5l-7.7-5.6c-12.3-8.9-10.1-27.8 4-33.7l10.6-4.5c19.3-8.2 41.5-1.8 53.8 15.5c10.2 14.4 28.1 23.8 49.3 23.8s39.1-9.4 49.3-23.8c12.3-17.3 34.5-23.7 53.8-15.5l10.6 4.5c14.1 5.9 16.3 24.8 4 33.7l-7.7 5.6C342.5 309.5 301 320 256 320z" fill="#000"/>
  <path d="M256 256l22.5-8.5L287 225l8.5 22.5L318 256l-22.5 8.5L287 287l-8.5-22.5L256 256z" fill="#000"/>
</svg>
